<svg width="17" height="17" viewBox="0 0 17 17" fill="none" xmlns="http://www.w3.org/2000/svg">
<g id="icons-mini/ellipsis-vertical">
<g id="Union">
<path d="M8.40188 2.64018C9.09869 2.64018 9.66356 3.20506 9.66356 3.90186C9.66356 4.59867 9.09869 5.16355 8.40188 5.16355C7.70507 5.16355 7.1402 4.59867 7.1402 3.90186C7.1402 3.20506 7.70507 2.64018 8.40188 2.64018Z" fill="#883E3E"/>
<path d="M8.40188 7.26635C9.09869 7.26635 9.66356 7.83122 9.66356 8.52803C9.66356 9.22484 9.09869 9.78972 8.40188 9.78972C7.70507 9.78972 7.1402 9.22484 7.1402 8.52803C7.1402 7.83122 7.70507 7.26635 8.40188 7.26635Z" fill="#883E3E"/>
<path d="M9.66356 13.1542C9.66356 12.4574 9.09869 11.8925 8.40188 11.8925C7.70507 11.8925 7.1402 12.4574 7.1402 13.1542C7.1402 13.851 7.70507 14.4159 8.40188 14.4159C9.09869 14.4159 9.66356 13.851 9.66356 13.1542Z" fill="#883E3E"/>
</g>
</g>
</svg>
