<svg width="38" height="38" viewBox="0 0 38 38" fill="none" xmlns="http://www.w3.org/2000/svg">
<g id="Group 5363">
<g id="Group 4812">
<path id="Rectangle 360" d="M38 19C38 8.50659 29.4934 0 19 0C8.50659 0 0 8.50659 0 19C0 29.4934 8.50659 38 19 38C29.4934 38 38 29.4934 38 19Z" fill="#883E3E"/>
</g>
<g id="Group 4698">
<g id="Group 4569">
<path id="Union 3" d="M25.3657 14.2082L19.9527 19.6212C19.813 19.7614 19.643 19.8676 19.4557 19.9316C19.2684 19.9956 19.0689 20.0156 18.8727 19.9902C18.6764 20.0156 18.4769 19.9956 18.2896 19.9316C18.1023 19.8676 17.9323 19.7614 17.7927 19.6212L12.3787 14.2082C12.2586 14.088 12.1633 13.9454 12.0983 13.7884C12.0334 13.6314 12 13.4632 12 13.2933C12 13.1234 12.0336 12.9552 12.0986 12.7983C12.1637 12.6413 12.259 12.4987 12.3792 12.3787C12.4993 12.2586 12.6419 12.1633 12.7989 12.0983C12.9559 12.0334 13.1241 12 13.294 12C13.4639 12 13.6321 12.0336 13.789 12.0986C13.946 12.1637 14.0886 12.259 14.2087 12.3792L18.8727 17.0432L23.5367 12.3792C23.6567 12.2591 23.7993 12.1638 23.9562 12.0988C24.1131 12.0338 24.2813 12.0004 24.4512 12.0004C24.621 12.0004 24.7892 12.0338 24.9461 12.0988C25.103 12.1638 25.2456 12.2591 25.3657 12.3792C25.4857 12.4992 25.581 12.6418 25.646 12.7987C25.711 12.9556 25.7445 13.1238 25.7445 13.2937C25.7445 13.4635 25.711 13.6317 25.646 13.7886C25.581 13.9455 25.4857 14.0881 25.3657 14.2082Z" fill="white" stroke="white"/>
</g>
<g id="Group 4570">
<path id="Union 3_2" d="M12.379 23.5519L17.792 18.1389C17.9316 17.9987 18.1017 17.8924 18.2889 17.8285C18.4762 17.7645 18.6757 17.7444 18.872 17.7699C19.0682 17.7444 19.2677 17.7645 19.455 17.8285C19.6423 17.8924 19.8123 17.9987 19.952 18.1389L25.366 23.5519C25.4861 23.672 25.5813 23.8147 25.6463 23.9717C25.7113 24.1286 25.7447 24.2969 25.7446 24.4667C25.7446 24.6366 25.7111 24.8048 25.646 24.9618C25.581 25.1187 25.4856 25.2613 25.3655 25.3814C25.2453 25.5015 25.1027 25.5967 24.9457 25.6617C24.7887 25.7267 24.6205 25.7601 24.4506 25.76C24.2807 25.76 24.1125 25.7265 23.9556 25.6614C23.7987 25.5964 23.6561 25.501 23.536 25.3809L18.872 20.7169L14.208 25.3809C14.0879 25.501 13.9453 25.5962 13.7884 25.6612C13.6315 25.7262 13.4633 25.7597 13.2935 25.7597C13.1236 25.7597 12.9555 25.7262 12.7986 25.6612C12.6416 25.5962 12.4991 25.501 12.379 25.3809C12.2589 25.2608 12.1636 25.1182 12.0986 24.9613C12.0336 24.8044 12.0002 24.6362 12.0002 24.4664C12.0002 24.2966 12.0336 24.1284 12.0986 23.9715C12.1636 23.8146 12.2589 23.672 12.379 23.5519Z" fill="white" stroke="white"/>
</g>
</g>
</g>
</svg>
