<svg width="20" height="20" viewBox="0 0 20 20" fill="none" xmlns="http://www.w3.org/2000/svg">
<g id="Group 4698">
<g id="Group 4569">
<path id="Union 3" d="M18.5037 3.88859L11.4148 10.9695C11.2319 11.153 11.0092 11.2919 10.764 11.3756C10.5187 11.4593 10.2575 11.4855 10.0004 11.4522C9.74342 11.4855 9.48217 11.4593 9.23691 11.3756C8.99165 11.2919 8.76896 11.153 8.58607 10.9695L1.49588 3.88859C1.33861 3.7314 1.21387 3.54481 1.12878 3.33947C1.0437 3.13413 0.999939 2.91407 1 2.69183C1.00006 2.4696 1.04394 2.24956 1.12914 2.04426C1.21433 1.83897 1.33918 1.65245 1.49654 1.49535C1.6539 1.33825 1.8407 1.21365 2.04627 1.12866C2.25184 1.04367 2.47215 0.999963 2.69463 1.00002C2.91711 1.00008 3.13741 1.04392 3.34293 1.12902C3.54845 1.21412 3.73518 1.33882 3.89246 1.49601L10.0004 7.59715L16.1084 1.49601C16.2657 1.33891 16.4524 1.21429 16.6579 1.12927C16.8634 1.04425 17.0836 1.00049 17.3061 1.00049C17.5285 1.00049 17.7487 1.04425 17.9542 1.12927C18.1597 1.21429 18.3464 1.33891 18.5037 1.49601C18.661 1.6531 18.7857 1.83961 18.8708 2.04487C18.956 2.25013 18.9998 2.47012 18.9998 2.6923C18.9998 2.91447 18.956 3.13446 18.8708 3.33972C18.7857 3.54498 18.661 3.73149 18.5037 3.88859Z" fill="white" stroke="white"/>
</g>
<g id="Group 4570">
<path id="Union 3_2" d="M1.49631 16.1114L8.58519 9.03051C8.76807 8.84707 8.99076 8.70812 9.23602 8.62442C9.48128 8.54071 9.74253 8.5145 9.99956 8.5478C10.2566 8.5145 10.5178 8.54071 10.7631 8.62442C11.0084 8.70812 11.231 8.84707 11.4139 9.03051L18.5041 16.1114C18.6614 16.2686 18.7861 16.4552 18.8712 16.6606C18.9563 16.8659 19.0001 17.086 19 17.3082C18.9999 17.5304 18.9561 17.7505 18.8709 17.9558C18.7857 18.1611 18.6608 18.3476 18.5035 18.5047C18.3461 18.6618 18.1593 18.7864 17.9537 18.8714C17.7482 18.9564 17.5278 19.0001 17.3054 19C17.0829 18.9999 16.8626 18.9561 16.6571 18.871C16.4515 18.7859 16.2648 18.6612 16.1075 18.504L9.99956 12.4029L3.89157 18.504C3.7343 18.6611 3.54758 18.7857 3.34209 18.8708C3.1366 18.9558 2.91636 18.9995 2.69394 18.9995C2.47152 18.9995 2.25128 18.9558 2.04579 18.8708C1.8403 18.7857 1.65358 18.6611 1.49631 18.504C1.33903 18.3469 1.21427 18.1604 1.12916 17.9552C1.04404 17.7499 1.00023 17.5299 1.00023 17.3077C1.00023 17.0856 1.04404 16.8656 1.12916 16.6603C1.21428 16.455 1.33903 16.2685 1.49631 16.1114Z" fill="white" stroke="white"/>
</g>
</g>
</svg>
