<svg width="18" height="28" viewBox="0 0 18 28" fill="none" xmlns="http://www.w3.org/2000/svg">
<g id="Group 5342">
<path id="Rectangle 186" d="M1.81487 5.18476L12.5568 15.4168C13.5587 16.3711 15.183 16.3711 16.1849 15.4168L16.186 15.4158C17.1878 14.4615 17.1878 12.9143 16.186 11.96L5.44399 1.72791C4.44215 0.773614 2.81783 0.773615 1.81599 1.72791L1.81487 1.72897C0.813023 2.68326 0.813022 4.23047 1.81487 5.18476Z" fill="white"/>
<path id="Rectangle 187" d="M5.4431 26.2721L16.1851 16.04C17.1869 15.0857 17.1869 13.5385 16.1851 12.5842L16.184 12.5831C15.1821 11.6289 13.5578 11.6289 12.556 12.5831L1.81398 22.8152C0.812134 23.7695 0.812134 25.3167 1.81398 26.271L1.8151 26.2721C2.81694 27.2264 4.44126 27.2264 5.4431 26.2721Z" fill="white"/>
</g>
</svg>
