<svg width="42" height="33" viewBox="0 0 42 33" fill="none" xmlns="http://www.w3.org/2000/svg">
<g id="Group 5360">
<path id="Subtraction 15" d="M32 33H3C2.20435 33 1.4413 32.6839 0.878693 32.1213C0.316083 31.5587 0 30.7956 0 30V18H35V30C35 30.7956 34.6839 31.5587 34.1213 32.1213C33.5587 32.6839 32.7957 33 32 33ZM6.04401 25.836C5.86759 25.8358 5.69298 25.8715 5.53079 25.9409C5.36861 26.0103 5.22224 26.112 5.10062 26.2398C4.979 26.3676 4.88467 26.5188 4.82336 26.6842C4.76206 26.8496 4.73503 27.0258 4.74399 27.202C4.76093 27.5352 4.90535 27.8492 5.14734 28.0789C5.38932 28.3086 5.71036 28.4364 6.04401 28.436C6.09715 28.4357 6.15023 28.4323 6.203 28.426H9.40302C9.72683 28.3975 10.0282 28.2488 10.2478 28.009C10.4673 27.7693 10.5891 27.4561 10.5891 27.131C10.5891 26.8059 10.4673 26.4927 10.2478 26.253C10.0282 26.0132 9.72683 25.8645 9.40302 25.836H6.04102H6.04401ZM22.732 22.01C22.5603 22.0095 22.3903 22.0435 22.232 22.11C22.0752 22.176 21.9328 22.2722 21.813 22.393C21.6932 22.5138 21.5984 22.6571 21.534 22.8146C21.4697 22.9722 21.437 23.1408 21.438 23.311V27.02C21.4406 27.3613 21.5774 27.6879 21.8188 27.9293C22.0601 28.1706 22.3867 28.3074 22.728 28.31H27.898C28.241 28.31 28.5702 28.1744 28.8138 27.9328C29.0573 27.6911 29.1954 27.363 29.198 27.02V23.311C29.199 23.1408 29.1664 22.9722 29.102 22.8146C29.0377 22.6571 28.9429 22.5138 28.823 22.393C28.7029 22.2725 28.5606 22.1764 28.404 22.11C28.2457 22.0436 28.0757 22.0096 27.904 22.01H22.732ZM6.14902 22.6C5.82046 22.6004 5.50438 22.7259 5.26501 22.951C5.13849 23.0681 5.03649 23.2091 4.965 23.366C4.89524 23.5237 4.85718 23.6936 4.853 23.866C4.84889 24.0369 4.87917 24.207 4.94202 24.366C5.0049 24.5255 5.0987 24.6709 5.21802 24.794C5.33693 24.9174 5.47939 25.0157 5.63699 25.083C5.79546 25.1489 5.96537 25.1829 6.13699 25.183H13.772C14.0225 25.1833 14.2677 25.1109 14.4779 24.9746C14.6881 24.8383 14.8542 24.6439 14.956 24.415C15.0253 24.258 15.0629 24.0887 15.0665 23.9171C15.0701 23.7455 15.0397 23.5748 14.977 23.415C14.8818 23.1743 14.7166 22.9677 14.5026 22.822C14.2886 22.6764 14.0359 22.5983 13.777 22.598H6.14902V22.6ZM26.612 25.733H24.027V24.6H26.612V25.737V25.733ZM35 12H0V10C0 9.20435 0.316083 8.44129 0.878693 7.87868C1.4413 7.31607 2.20435 7 3 7H32C32.7957 7 33.5587 7.31607 34.1213 7.87868C34.6839 8.44129 35 9.20435 35 10V12Z" fill="#883E3E" fill-opacity="0.5"/>
<path id="Subtraction 13" d="M39 26H37V8C37 7.20435 36.6839 6.44129 36.1213 5.87868C35.5587 5.31607 34.7957 5 34 5H7V3C7 2.20435 7.31608 1.44129 7.87869 0.87868C8.4413 0.31607 9.20435 0 10 0L39 0C39.7957 0 40.5587 0.31607 41.1213 0.87868C41.6839 1.44129 42 2.20435 42 3V23C42 23.7956 41.6839 24.5587 41.1213 25.1213C40.5587 25.6839 39.7957 26 39 26Z" fill="#883E3E" fill-opacity="0.5"/>
</g>
</svg>
