<svg width="28" height="28" viewBox="0 0 28 28" fill="none" xmlns="http://www.w3.org/2000/svg">
<g id="Group 5359">
<path id="Subtraction 15" d="M21.3333 28H2C1.46957 28 0.960867 27.7318 0.585795 27.2545C0.210722 26.7771 0 26.1296 0 25.4545V15.2727H23.3333V25.4545C23.3333 26.1296 23.1226 26.7771 22.7475 27.2545C22.3724 27.7318 21.8638 28 21.3333 28ZM4.02933 21.9215C3.91172 21.9213 3.79532 21.9515 3.68719 22.0104C3.57907 22.0693 3.48149 22.1556 3.40041 22.2641C3.31933 22.3725 3.25645 22.5008 3.21557 22.6412C3.1747 22.7815 3.15669 22.931 3.16266 23.0805C3.17395 23.3632 3.27023 23.6296 3.43156 23.8245C3.59288 24.0194 3.8069 24.1279 4.02933 24.1275C4.06476 24.1272 4.10015 24.1244 4.13533 24.119H6.26867C6.48455 24.0949 6.68547 23.9686 6.83184 23.7652C6.97821 23.5619 7.05938 23.2961 7.05938 23.0202C7.05938 22.7444 6.97821 22.4786 6.83184 22.2752C6.68547 22.0718 6.48455 21.9456 6.26867 21.9215H4.02734H4.02933ZM15.1547 18.6751C15.0402 18.6748 14.9269 18.7036 14.8213 18.76C14.7168 18.816 14.6219 18.8976 14.542 19.0001C14.4621 19.1026 14.3989 19.2242 14.356 19.3579C14.3131 19.4915 14.2914 19.6346 14.292 19.779V22.9261C14.2937 23.2157 14.3849 23.4928 14.5458 23.6976C14.7067 23.9024 14.9244 24.0184 15.152 24.0206H18.5986C18.8273 24.0206 19.0468 23.9056 19.2092 23.7005C19.3715 23.4955 19.4636 23.2171 19.4653 22.9261V19.779C19.466 19.6346 19.4442 19.4915 19.4013 19.3579C19.3584 19.2242 19.2952 19.1026 19.2153 19.0001C19.1353 18.8979 19.0404 18.8163 18.936 18.76C18.8305 18.7037 18.7171 18.6748 18.6027 18.6751H15.1547ZM4.09934 19.1758C3.8803 19.1761 3.66959 19.2826 3.51001 19.4736C3.42566 19.5729 3.35766 19.6926 3.30999 19.8257C3.26349 19.9595 3.23812 20.1037 3.23533 20.2499C3.23259 20.395 3.25278 20.5392 3.29468 20.6742C3.3366 20.8095 3.39913 20.9329 3.47868 21.0373C3.55795 21.142 3.65292 21.2254 3.75799 21.2825C3.86364 21.3384 3.97691 21.3673 4.09133 21.3674H9.18133C9.34834 21.3677 9.51181 21.3063 9.65193 21.1906C9.79204 21.0749 9.90277 20.91 9.97065 20.7158C10.0169 20.5825 10.0419 20.4389 10.0443 20.2933C10.0467 20.1477 10.0265 20.0029 9.98465 19.8673C9.92121 19.663 9.81103 19.4877 9.66839 19.3641C9.52575 19.2405 9.35723 19.1743 9.18466 19.1741H4.09934V19.1758ZM17.7413 21.8341H16.018V20.8727H17.7413V21.8375V21.8341ZM23.3333 10.1818H0V8.48485C0 7.80975 0.210722 7.1623 0.585795 6.68494C0.960867 6.20757 1.46957 5.93939 2 5.93939H21.3333C21.8638 5.93939 22.3724 6.20757 22.7475 6.68494C23.1226 7.1623 23.3333 7.80975 23.3333 8.48485V10.1818Z" fill="white"/>
<path id="Subtraction 13" d="M26 22.0606H24.6667V6.78788C24.6667 6.11278 24.4559 5.46534 24.0809 4.98797C23.7058 4.51061 23.1971 4.24242 22.6667 4.24242H4.66669V2.54545C4.66669 1.87036 4.87741 1.22291 5.25248 0.745546C5.62755 0.268181 6.13625 0 6.66669 0L26 0C26.5305 0 27.0391 0.268181 27.4142 0.745546C27.7893 1.22291 28 1.87036 28 2.54545V19.5152C28 20.1902 27.7893 20.8377 27.4142 21.3151C27.0391 21.7924 26.5305 22.0606 26 22.0606Z" fill="white"/>
</g>
</svg>
