<svg width="44" height="26" viewBox="0 0 44 26" fill="none" xmlns="http://www.w3.org/2000/svg">
<g id="Group 5357">
<path id="Subtraction 18" d="M41.9429 25.572H37.9509C37.9439 25.455 37.9409 25.344 37.9409 25.241C37.9424 23.7828 38.5224 22.3848 39.5535 21.3537C40.5846 20.3226 41.9827 19.7426 43.4409 19.741C43.5139 19.741 43.5879 19.741 43.6609 19.741V23.841C43.6609 24.2972 43.48 24.7348 43.158 25.0579C42.836 25.3811 42.3991 25.5634 41.9429 25.565V25.572ZM35.9479 25.572H7.93188C7.93188 25.472 7.93884 25.358 7.93884 25.241C7.93646 23.2526 7.14557 21.3463 5.73956 19.9403C4.33356 18.5343 2.42724 17.7434 0.438843 17.741H0.359863V7.741H0.438843C2.38373 7.74217 4.25306 6.98778 5.65234 5.63701C7.05163 4.28624 7.87142 2.44472 7.93884 0.501001H35.9479C36.0153 2.44472 36.8352 4.28624 38.2344 5.63701C39.6337 6.98778 41.503 7.74217 43.4479 7.741C43.5219 7.741 43.5952 7.741 43.6678 7.741V17.741C43.6008 17.741 43.5299 17.741 43.4479 17.741C41.4594 17.7431 39.553 18.534 38.1469 19.94C36.7408 21.3461 35.95 23.2525 35.9479 25.241C35.9479 25.351 35.9479 25.462 35.9549 25.571L35.9479 25.572ZM22.0149 3.92H22.0038C19.7387 3.91896 17.5544 4.76098 15.876 6.28208C14.1976 7.80319 13.1454 9.8945 12.9243 12.1488C12.7031 14.4031 13.3289 16.659 14.6797 18.4772C16.0306 20.2955 18.0097 21.5459 20.2319 21.985C20.8175 22.1009 21.4129 22.1595 22.0099 22.16C24.4287 22.16 26.7483 21.1991 28.4587 19.4888C30.169 17.7785 31.1299 15.4588 31.1299 13.04C31.1299 10.6212 30.169 8.30152 28.4587 6.59119C26.7483 4.88086 24.4287 3.92 22.0099 3.92H22.0149ZM5.93188 25.572H2.0849C1.85851 25.5721 1.63428 25.5276 1.42511 25.441C1.21594 25.3544 1.02594 25.2274 0.865906 25.0673C0.705871 24.9072 0.578976 24.717 0.492493 24.5078C0.406009 24.2986 0.361614 24.0744 0.361877 23.848V19.741H0.440857C1.89898 19.7429 3.29689 20.3229 4.32794 21.354C5.35899 22.385 5.939 23.7829 5.94086 25.241C5.94086 25.35 5.94085 25.462 5.93085 25.571L5.93188 25.572ZM22.0149 19.872C20.3152 19.8729 18.676 19.2415 17.4161 18.1006C16.1562 16.9598 15.3658 15.391 15.1985 13.6996C15.0313 12.0082 15.4992 10.315 16.5113 8.94954C17.5234 7.58404 19.0072 6.64385 20.6741 6.31186C22.3411 5.97988 24.0719 6.27984 25.5299 7.15341C26.9879 8.02697 28.0688 9.41165 28.5623 11.0381C29.0559 12.6645 28.9267 14.4164 28.2001 15.9529C27.4734 17.4894 26.2012 18.7006 24.6309 19.351C23.8018 19.696 22.9128 19.8737 22.0149 19.874V19.872ZM18.6449 14.741C18.6444 15.3983 18.8713 16.0354 19.287 16.5445C19.7028 17.0536 20.2817 17.4032 20.9258 17.534V18.741H23.2049V17.541C23.6037 17.4586 23.9803 17.2922 24.3099 17.053C24.6381 16.814 24.9109 16.507 25.1099 16.153C25.3097 15.7986 25.4327 15.4061 25.4709 15.001C25.5082 14.595 25.4577 14.1857 25.3229 13.801H25.3169C25.1097 13.2436 24.737 12.7629 24.2489 12.4233C23.7608 12.0837 23.1805 11.9015 22.5859 11.901H21.4859C21.3347 11.901 21.1897 11.8409 21.0828 11.7341C20.9759 11.6272 20.9159 11.4822 20.9159 11.331C20.9159 11.1798 20.9759 11.0348 21.0828 10.9279C21.1897 10.8211 21.3347 10.761 21.4859 10.761H22.6259C22.7008 10.7607 22.775 10.7753 22.8443 10.8039C22.9136 10.8324 22.9766 10.8744 23.0295 10.9274C23.0825 10.9803 23.1245 11.0433 23.153 11.1126C23.1816 11.1818 23.1961 11.2561 23.1959 11.331H25.4749C25.475 10.6743 25.2482 10.0376 24.8329 9.52884C24.4177 9.02007 23.8393 8.6704 23.1959 8.539V7.341H20.9169V8.541C20.3164 8.66507 19.7716 8.9788 19.3629 9.43593C18.9542 9.89306 18.7032 10.4694 18.6469 11.08C18.616 11.4766 18.6677 11.8752 18.7988 12.2508C18.9298 12.6263 19.1373 12.9706 19.4081 13.2619C19.679 13.5533 20.0072 13.7852 20.3723 13.9433C20.7373 14.1013 21.1311 14.1819 21.5289 14.18H22.6288C22.78 14.18 22.925 14.2401 23.0319 14.3469C23.1388 14.4538 23.1989 14.5988 23.1989 14.75C23.1989 14.9012 23.1388 15.0462 23.0319 15.1531C22.925 15.2599 22.78 15.32 22.6288 15.32H21.4889C21.414 15.3203 21.3397 15.3057 21.2704 15.2772C21.2012 15.2486 21.1382 15.2066 21.0852 15.1536C21.0322 15.1007 20.9903 15.0377 20.9617 14.9684C20.9332 14.8992 20.9186 14.8249 20.9189 14.75L18.6449 14.741ZM43.4409 5.741C42.0277 5.73933 40.6692 5.19443 39.6465 4.21907C38.6239 3.24371 38.0154 1.91254 37.9469 0.501001H41.9469C42.4029 0.502588 42.8397 0.684786 43.1617 1.00771C43.4837 1.33064 43.6646 1.76798 43.6649 2.224V5.741C43.5879 5.741 43.5139 5.741 43.4409 5.741ZM0.440857 5.741H0.361877V2.223C0.361746 1.9967 0.406195 1.77258 0.492737 1.56348C0.579279 1.35438 0.706189 1.16438 0.866211 1.00436C1.02623 0.844341 1.21625 0.717431 1.42535 0.630888C1.63446 0.544346 1.8586 0.499869 2.0849 0.5H5.93188C5.86364 1.91119 5.25561 3.24218 4.23358 4.21768C3.21156 5.19317 1.8537 5.73854 0.440857 5.741Z" fill="#883E3E"/>
</g>
</svg>
