<svg width="28" height="28" viewBox="0 0 28 28" fill="none" xmlns="http://www.w3.org/2000/svg">
<path id="Path 10562" d="M0.934008 0C0.686294 0 0.448725 0.110644 0.273565 0.307591C0.0984042 0.504537 0 0.771655 0 1.05018C0 1.3287 0.0984042 1.59582 0.273565 1.79277C0.448725 1.98972 0.686294 2.10036 0.934008 2.10036H3.91083L7.12046 19.1299C7.24766 19.7713 7.62127 20.3047 8.09327 20.2993H23.6574C23.9051 20.2993 24.1427 20.1886 24.3179 19.9917C24.493 19.7947 24.5914 19.5276 24.5914 19.2491C24.5914 18.9706 24.493 18.7035 24.3179 18.5065C24.1427 18.3096 23.9051 18.1989 23.6574 18.1989H8.85248L8.45247 16.0986H24.903C25.1129 16.0919 25.315 16.008 25.4784 15.8598C25.6418 15.7117 25.7575 15.5074 25.8078 15.2782L27.9862 4.78C28.0092 4.62793 28.0034 4.47212 27.9692 4.32273C27.935 4.17335 27.8732 4.03373 27.7879 3.91297C27.7025 3.79222 27.5955 3.69303 27.4738 3.62188C27.3521 3.55073 27.2184 3.5092 27.0814 3.5H6.09005L5.58445 0.831149C5.53554 0.598236 5.41918 0.390202 5.25366 0.239751C5.08814 0.0893002 4.88284 0.00496377 4.67004 0L0.934008 0ZM6.48046 5.60036H12.1421V8.74865H7.07246L6.48046 5.60036ZM14.0093 5.60036H18.367V8.74865H14.0077L14.0093 5.60036ZM20.235 5.60036H25.9046L25.2526 8.74865H20.2334L20.235 5.60036ZM7.47087 10.8499H12.1397V13.9982H8.06447L7.47087 10.8499ZM14.0077 10.8499H18.3654V13.9982H14.0077V10.8499ZM20.2334 10.8499H24.815L24.163 13.9982H20.2334V10.8499ZM11.2061 21C10.5905 21.0004 9.98883 21.2059 9.47714 21.5907C8.96545 21.9755 8.56672 22.5223 8.33136 23.1619C8.09601 23.8014 8.03459 24.5051 8.15488 25.1839C8.27517 25.8627 8.57176 26.4862 9.00716 26.9755C9.44256 27.4648 9.99722 27.798 10.601 27.9329C11.2048 28.0678 11.8306 27.9984 12.3993 27.7334C12.968 27.4684 13.4541 27.0198 13.796 26.4443C14.138 25.8688 14.3205 25.1922 14.3205 24.5C14.3167 23.5731 13.9876 22.6853 13.4046 22.0298C12.8217 21.3744 12.0321 21.0043 11.2077 21H11.2061ZM20.5462 21C19.9305 21 19.3287 21.2053 18.8168 21.5899C18.3049 21.9744 17.9059 22.5211 17.6703 23.1606C17.4347 23.8001 17.3731 24.5039 17.4932 25.1828C17.6133 25.8617 17.9097 26.4854 18.3451 26.9749C18.7804 27.4644 19.3351 27.7977 19.9389 27.9327C20.5427 28.0678 21.1686 27.9985 21.7374 27.7336C22.3062 27.4687 22.7924 27.0201 23.1344 26.4445C23.4764 25.8689 23.659 25.1922 23.659 24.5C23.6552 23.5731 23.326 22.6853 22.7431 22.0298C22.1601 21.3744 21.3706 21.0043 20.5462 21ZM11.2061 23.0995C11.4523 23.0995 11.693 23.1815 11.8977 23.3353C12.1024 23.4891 12.2619 23.7077 12.3562 23.9635C12.4504 24.2192 12.475 24.5007 12.427 24.7722C12.379 25.0437 12.2604 25.2931 12.0863 25.4888C11.9122 25.6845 11.6904 25.8178 11.4489 25.8718C11.2075 25.9259 10.9572 25.8981 10.7297 25.7922C10.5023 25.6863 10.3079 25.5069 10.1711 25.2767C10.0343 25.0465 9.96129 24.7759 9.96129 24.4991C9.95947 24.3147 9.99042 24.1318 10.0523 23.9611C10.1142 23.7903 10.2059 23.6352 10.3218 23.5048C10.4378 23.3745 10.5757 23.2714 10.7276 23.2018C10.8794 23.1322 11.0421 23.0974 11.2061 23.0995ZM20.5446 23.0995C20.7908 23.0995 21.0315 23.1815 21.2362 23.3353C21.4409 23.4891 21.6004 23.7077 21.6946 23.9635C21.7889 24.2192 21.8135 24.5007 21.7655 24.7722C21.7174 25.0437 21.5989 25.2931 21.4248 25.4888C21.2507 25.6845 21.0289 25.8178 20.7874 25.8718C20.546 25.9259 20.2957 25.8981 20.0682 25.7922C19.8408 25.6863 19.6463 25.5069 19.5096 25.2767C19.3728 25.0465 19.2998 24.7759 19.2998 24.4991C19.2979 24.3147 19.3289 24.1318 19.3908 23.9611C19.4527 23.7903 19.5443 23.6352 19.6603 23.5048C19.7763 23.3745 19.9142 23.2714 20.0661 23.2018C20.2179 23.1322 20.3806 23.0974 20.5446 23.0995Z" fill="white"/>
</svg>
