<svg width="30" height="22" viewBox="0 0 30 22" fill="none" xmlns="http://www.w3.org/2000/svg">
<path id="Vector" d="M23.9407 14.4523C24.0402 14.5477 24.096 14.6761 24.096 14.8099C24.096 14.9437 24.0402 15.0722 23.9407 15.1676L23.0396 16.0639C22.9368 16.158 22.799 16.2107 22.6556 16.2107C22.5122 16.2107 22.3745 16.158 22.2717 16.0639L18.6989 12.7381L15.1766 16.0639C15.0738 16.158 14.9361 16.2107 14.7927 16.2107C14.6493 16.2107 14.5115 16.158 14.4087 16.0639L13.4571 15.1676C13.3613 15.0704 13.3081 14.9426 13.3081 14.8099C13.3081 14.6773 13.3613 14.5495 13.4571 14.4523L16.9545 11.1265L13.4244 7.80128C13.3248 7.70585 13.269 7.57741 13.269 7.44362C13.269 7.30982 13.3248 7.18138 13.4244 7.08596L14.3753 6.18964C14.4766 6.09586 14.6129 6.0433 14.755 6.0433C14.897 6.0433 15.0334 6.09586 15.1347 6.18964L18.6655 9.55437L22.2067 6.18964C22.3096 6.0955 22.4473 6.04282 22.5907 6.04282C22.7341 6.04282 22.8718 6.0955 22.9747 6.18964L23.9584 7.0699C24.0583 7.16675 24.1142 7.2965 24.1142 7.43157C24.1142 7.56664 24.0583 7.69639 23.9584 7.79324L20.4171 11.1289L23.9407 14.4523ZM27.922 0.98597H8.64166C8.40634 0.987242 8.17439 1.03883 7.96332 1.13685C7.75225 1.23487 7.56757 1.37675 7.4232 1.5518L0.353752 10.2462C0.150789 10.5 0.0410156 10.8091 0.0410156 11.1268C0.0410156 11.4445 0.150789 11.7536 0.353752 12.0073L7.46517 20.7011C7.60954 20.8762 7.79422 21.0181 8.00529 21.1161C8.21636 21.2141 8.44831 21.2657 8.68363 21.267H27.922C28.1233 21.267 28.3226 21.2295 28.5084 21.1567C28.6943 21.0839 28.8631 20.9772 29.005 20.8427C29.1469 20.7083 29.2593 20.5488 29.3355 20.3733C29.4118 20.1978 29.4504 20.0099 29.4493 19.8203V2.43205C29.4506 2.2424 29.4121 2.05439 29.3359 1.87884C29.2597 1.70329 29.1474 1.54368 29.0054 1.4092C28.8634 1.27472 28.6946 1.16804 28.5086 1.09529C28.3227 1.02255 28.1233 0.985185 27.922 0.985352V0.98597Z" fill="#883E3E"/>
</svg>
